<?xml version="1.0" encoding="utf-8"?>
<!-- Generator: Adobe Illustrator 16.0.0, SVG Export Plug-In . SVG Version: 6.00 Build 0)  -->
<!DOCTYPE svg PUBLIC "-//W3C//DTD SVG 1.1//EN" "http://www.w3.org/Graphics/SVG/1.1/DTD/svg11.dtd">
<svg version="1.1" id="圖層_1" xmlns="http://www.w3.org/2000/svg" xmlns:xlink="http://www.w3.org/1999/xlink" x="0px" y="0px"
	 width="200px" height="50px" viewBox="0 0 200 50" enable-background="new 0 0 200 50" xml:space="preserve">
<g>
	<path fill="#FFFFFF" d="M17.195,2.973c0.164-0.278,0.406-0.503,0.725-0.675c0.32-0.172,0.685-0.324,1.094-0.455
		c0.213-0.245,0.484-0.532,0.811-0.86c0.098-0.099,0.233-0.201,0.405-0.307c0.172-0.106,0.365-0.208,0.578-0.307
		c0.328-0.131,0.614-0.254,0.86-0.369c0.381,0,0.672,0.288,0.871,0.862c0.199,0.575,0.299,1.437,0.299,2.586
		c0,1.757-0.111,3.354-0.333,4.791s-0.555,2.706-0.999,3.805c-0.049,0.132-0.103,0.28-0.16,0.443
		c-0.058,0.164-0.128,0.345-0.21,0.542c-0.049,0.296-0.119,0.641-0.209,1.035s-0.193,0.854-0.308,1.379
		c-0.033,0.181-0.053,0.391-0.062,0.628c-0.009,0.238-0.045,0.529-0.111,0.874c-0.033,0.214-0.131,0.579-0.295,1.096
		c-0.165,0.517-0.411,1.178-0.74,1.982l0.099,0.542c-0.132,0.46-0.309,1.026-0.53,1.7c-0.223,0.673-0.49,1.445-0.802,2.315
		c-0.099,0.428-0.247,0.94-0.444,1.54c-0.197,0.6-0.435,1.293-0.715,2.081c-0.049,0.427-0.099,0.796-0.148,1.108
		c-0.033,0.131-0.14,0.484-0.32,1.059c-0.181,0.575-0.477,1.371-0.887,2.39c-0.116,0.279-0.325,0.538-0.629,0.775
		c-0.304,0.238-0.719,0.464-1.245,0.677c-0.444,0.182-0.868,0.321-1.271,0.42c-0.402,0.098-0.784,0.147-1.146,0.147
		c-0.542,0-1.01-0.119-1.404-0.357c-0.394-0.237-0.681-0.579-0.862-1.022c-0.641-1.576-1.113-2.836-1.416-3.78
		c-0.304-0.944-0.447-1.563-0.431-1.86c-0.083-0.146-0.201-0.41-0.357-0.787c-0.156-0.378-0.316-0.895-0.48-1.552
		c-0.164-0.591-0.283-1.092-0.357-1.502c-0.074-0.41-0.11-0.731-0.11-0.961c0-1.067,0.082-1.868,0.246-2.401
		c0.164-0.533,0.411-0.801,0.739-0.801c0.576,0,1.072,0.083,1.492,0.246c0.419,0.164,0.777,0.394,1.072,0.688
		c0.165,0.197,0.341,0.5,0.531,0.91c0.188,0.409,0.407,0.934,0.653,1.573c0.329,0.737,0.571,1.336,0.728,1.795
		c0.156,0.458,0.234,0.762,0.234,0.909c0,0.295-0.202,0.564-0.604,0.803c-0.403,0.238-0.604,0.456-0.604,0.654
		c0.147,0.279,0.275,0.568,0.382,0.864c0.107,0.296,0.218,0.568,0.333,0.815c0.181,0.444,0.366,0.77,0.555,0.975
		c0.189,0.207,0.382,0.309,0.58,0.309c0.263,0,0.563-0.369,0.899-1.107c0.337-0.74,0.703-1.857,1.098-3.353
		c0.313-1.101,0.588-2.103,0.826-3.006c0.238-0.904,0.415-1.733,0.53-2.489c0.115-0.312,0.238-0.686,0.37-1.121
		c0.132-0.435,0.28-0.957,0.445-1.564c0.049-0.131,0.078-0.292,0.086-0.48c0.008-0.189,0.037-0.415,0.086-0.678
		c0.131-0.822,0.275-1.656,0.432-2.501c0.156-0.846,0.308-1.688,0.456-2.526c0.164-0.985,0.279-1.901,0.345-2.748
		c0.065-0.846,0.099-1.622,0.099-2.329c0-0.591-0.403-0.944-1.208-1.06c-0.804-0.115-1.207-0.304-1.207-0.567
		c0-0.229,0.139-0.496,0.418-0.799C16.245,3.665,16.654,3.333,17.195,2.973z"/>
	<path fill="#FFFFFF" d="M22.075,27.537c0.115-0.115,0.234-0.267,0.357-0.456c0.123-0.188,0.267-0.397,0.431-0.628l1.896-1.305
		c0.23-0.279,0.583-0.637,1.06-1.071c0.476-0.435,1.067-0.964,1.773-1.589c0.082-0.181,0.217-0.39,0.406-0.628
		c0.188-0.237,0.415-0.472,0.677-0.702c0.229-0.213,0.459-0.415,0.69-0.604c0.229-0.188,0.443-0.373,0.64-0.554
		c0.246-0.247,0.48-0.493,0.702-0.739c0.221-0.247,0.447-0.484,0.677-0.714c0.262-0.23,0.533-0.41,0.813-0.542
		c0.279-0.131,0.583-0.197,0.911-0.197c0.361,0,0.637,0.045,0.825,0.135c0.189,0.09,0.292,0.218,0.308,0.382
		c-0.164,0.378-0.336,0.755-0.517,1.133l0.147,0.221c0.723-0.279,1.289-0.484,1.7-0.616c0.41-0.131,0.673-0.197,0.788-0.197
		c1.198,0,2.098,0.366,2.697,1.096c0.599,0.73,0.898,1.835,0.898,3.313c0,0.279-0.033,0.607-0.098,0.985s-0.172,0.788-0.32,1.231
		c-0.165,0.492-0.341,0.903-0.53,1.232c-0.188,0.328-0.365,0.566-0.529,0.714c0.066,0.214,0.139,0.365,0.222,0.456
		c0.083,0.09,0.188,0.135,0.32,0.135c0.131,0,0.267-0.041,0.406-0.123c0.139-0.082,0.308-0.205,0.505-0.369
		c0.164,0.361,0.324,0.735,0.48,1.121c0.156,0.385,0.316,0.768,0.48,1.145c-0.296,0.263-0.583,0.518-0.862,0.764
		s-0.575,0.484-0.887,0.715c-0.378,0.312-0.735,0.537-1.071,0.677c-0.337,0.14-0.669,0.21-0.998,0.21
		c-0.378,0-0.689-0.091-0.936-0.271s-0.443-0.435-0.591-0.764c-0.411,0.542-0.907,1.039-1.49,1.49
		c-0.583,0.452-1.227,0.824-1.933,1.121c-0.411,0.197-0.784,0.349-1.121,0.455c-0.336,0.107-0.644,0.16-0.923,0.16
		c-0.083,0-0.242,0.033-0.48,0.099c-0.238,0.065-0.431,0.099-0.578,0.099c-0.937,0-1.782-0.395-2.537-1.182
		c-0.756-0.789-1.133-1.667-1.133-2.637c0-0.394,0.09-0.914,0.271-1.563c0.181-0.648,0.271-1.03,0.271-1.146
		c0-0.114-0.037-0.209-0.111-0.283c-0.074-0.074-0.177-0.111-0.308-0.111c-0.083,0-0.279,0.123-0.591,0.37
		c-0.312,0.246-0.755,0.601-1.33,1.06c-0.049,0.064-0.107,0.164-0.172,0.295c-0.066,0.133-0.173,0.279-0.32,0.443
		c-0.131-0.377-0.279-0.76-0.443-1.145C22.453,28.272,22.272,27.898,22.075,27.537z M33.922,23.03
		c-0.082,0.016-0.201,0.103-0.357,0.258c-0.156,0.157-0.308,0.349-0.456,0.579c-0.23,0.378-0.492,0.788-0.788,1.231
		c-0.181,0.197-0.374,0.349-0.579,0.456c-0.206,0.107-0.439,0.185-0.702,0.234c-0.165,0.017-0.337,0.177-0.518,0.48
		c-0.181,0.304-0.361,0.743-0.542,1.317c-0.181,0.51-0.312,0.945-0.394,1.306c-0.082,0.361-0.123,0.665-0.123,0.911
		c0,0.46,0.115,0.805,0.345,1.035c0.23,0.229,0.583,0.344,1.059,0.344c0.755,0,1.449-0.209,2.082-0.627
		c0.632-0.42,1.228-1.047,1.786-1.885c0.262-0.312,0.509-0.607,0.739-0.887c0.131-0.099,0.237-0.258,0.32-0.48
		c0.083-0.222,0.164-0.496,0.246-0.825l0.444-1.404c-0.148-0.493-0.288-0.882-0.419-1.17c-0.132-0.287-0.263-0.464-0.394-0.529
		c-0.083-0.049-0.263-0.103-0.542-0.16C34.85,23.157,34.448,23.095,33.922,23.03z"/>
	<path fill="#FFFFFF" d="M39.883,27.537c0.065-0.115,0.151-0.242,0.258-0.382c0.107-0.14,0.234-0.308,0.382-0.505
		c0.165-0.131,0.378-0.32,0.641-0.566c0.262-0.247,0.558-0.533,0.887-0.862c0.295-0.328,0.656-0.734,1.083-1.219
		c0.427-0.484,0.944-1.071,1.552-1.761c0.262-0.279,0.591-0.637,0.985-1.072c0.394-0.435,0.863-0.956,1.404-1.564
		c0.459-0.542,0.952-0.944,1.478-1.207c0.525-0.262,1.083-0.394,1.674-0.394c0.591,0,1.026,0.185,1.306,0.554
		c0.279,0.369,0.419,0.908,0.419,1.613c0,0.378-0.14,1.1-0.419,2.167c-0.28,1.068-0.714,2.479-1.306,4.236
		c-0.147,0.329-0.287,0.641-0.418,0.936c-0.098,0.215-0.164,0.403-0.197,0.567c-0.033,0.163-0.049,0.286-0.049,0.369
		c0,0.099,0.057,0.222,0.172,0.37c0.083-0.051,0.161-0.115,0.234-0.197s0.16-0.182,0.258-0.296c0.131-0.246,0.333-0.505,0.604-0.776
		c0.271-0.271,0.595-0.57,0.973-0.898c0.148-0.279,0.341-0.555,0.579-0.825c0.238-0.271,0.505-0.521,0.801-0.751
		c0.065-0.065,0.151-0.172,0.259-0.32c0.106-0.148,0.233-0.304,0.381-0.468c0.213-0.214,0.468-0.435,0.764-0.666
		c0.295-0.229,0.64-0.468,1.035-0.714c0.443-0.23,0.841-0.41,1.194-0.542c0.353-0.131,0.661-0.197,0.923-0.197
		c0.509,0,0.961,0.123,1.355,0.369c0.394,0.247,0.73,0.632,1.01,1.158c0.328,1.019,0.64,1.962,0.936,2.833
		c0.181,0.509,0.382,0.887,0.604,1.133s0.472,0.369,0.751,0.369c0.213,0,0.406-0.041,0.579-0.123s0.332-0.205,0.48-0.369
		l0.985,2.266c-0.279,0.23-0.566,0.469-0.862,0.715c-0.295,0.246-0.583,0.484-0.862,0.714c-0.378,0.345-0.73,0.587-1.059,0.727
		s-0.657,0.21-0.985,0.21c-0.378,0-0.739-0.082-1.083-0.247c-0.345-0.163-0.64-0.409-0.887-0.739
		c-0.132-0.131-0.295-0.373-0.493-0.727c-0.197-0.353-0.427-0.791-0.689-1.317c-0.213-0.213-0.456-0.496-0.727-0.849
		c-0.271-0.354-0.587-0.768-0.948-1.244l-0.221-0.074c-0.312,0.098-0.62,0.246-0.923,0.443c-0.303,0.197-0.628,0.451-0.971,0.764
		c-0.739,0.656-1.272,1.067-1.6,1.23c-0.327,0.165-0.549,0.354-0.664,0.567c-0.23,0.394-0.624,0.903-1.181,1.526
		c-0.558,0.625-1.255,1.363-2.091,2.217c-0.213,0.214-0.426,0.423-0.64,0.629c-0.213,0.205-0.426,0.406-0.64,0.604
		c-0.213,0.18-0.455,0.308-0.726,0.381c-0.271,0.074-0.57,0.111-0.897,0.111c-0.657,0-1.014-0.227-1.071-0.678
		c-0.058-0.451-0.111-0.907-0.16-1.367c0.246-0.689,0.525-1.551,0.837-2.586c0.312-1.034,0.671-2.241,1.077-3.62
		c0-0.083,0.028-0.192,0.085-0.333c0.057-0.139,0.126-0.324,0.208-0.554c0.081-0.214,0.138-0.398,0.17-0.554
		c0.032-0.156,0.049-0.292,0.049-0.407s-0.041-0.205-0.123-0.271c-0.082-0.065-0.213-0.099-0.394-0.099
		c-0.165,0-0.382,0.099-0.653,0.296c-0.271,0.197-0.595,0.509-0.973,0.936c-0.46,0.492-0.83,0.879-1.108,1.157
		c-0.279,0.28-0.468,0.444-0.566,0.493c-0.165,0.115-0.357,0.279-0.579,0.492s-0.472,0.452-0.751,0.715
		c-0.033,0.064-0.083,0.164-0.148,0.295c-0.066,0.133-0.172,0.279-0.32,0.443c-0.065-0.246-0.18-0.55-0.345-0.911
		C40.359,28.531,40.146,28.079,39.883,27.537z"/>
	<path fill="#FFFFFF" d="M64.218,26.453l2.242-1.478c0.082-0.082,0.18-0.193,0.295-0.333c0.114-0.139,0.246-0.34,0.394-0.603
		c0.114-0.213,0.267-0.394,0.456-0.542s0.406-0.279,0.652-0.394c0.131-0.164,0.321-0.37,0.567-0.616s0.558-0.533,0.936-0.862
		c0.181-0.099,0.41-0.243,0.689-0.432c0.279-0.188,0.583-0.439,0.912-0.751c1.494-1.412,2.803-2.471,3.928-3.177
		c1.125-0.706,2.073-1.059,2.845-1.059c0.427,0,0.742,0.09,0.948,0.271c0.205,0.181,0.308,0.435,0.308,0.763
		c0,0.345-0.062,0.649-0.185,0.912c-0.123,0.263-0.316,0.484-0.579,0.665c-0.411,0.295-0.854,0.625-1.331,0.985
		c-0.263,0.344-0.583,0.71-0.96,1.096c-0.378,0.386-0.821,0.768-1.33,1.146c-0.164,0.213-0.304,0.402-0.418,0.566
		c-0.083,0.083-0.238,0.23-0.468,0.443c-0.23,0.214-0.534,0.46-0.912,0.739c-0.164,0.361-0.521,0.829-1.071,1.403
		c-0.55,0.575-1.285,1.264-2.204,2.069c-0.115,0.115-0.32,0.379-0.616,0.789c-0.296,0.41-0.682,0.951-1.158,1.625l0.172,0.222
		c0.361-0.114,0.739-0.312,1.133-0.591c0.394-0.279,0.829-0.648,1.305-1.108c0.558-0.509,1.014-0.924,1.367-1.244
		c0.354-0.319,0.604-0.529,0.751-0.628c0.115-0.065,0.23-0.131,0.345-0.197c0.115-0.064,0.246-0.148,0.394-0.246
		c0.755-0.903,1.462-1.572,2.118-2.007c0.657-0.435,1.264-0.653,1.823-0.653c0.345,0,0.607,0.135,0.789,0.406
		c0.18,0.271,0.287,0.677,0.32,1.219c-0.033,0.822-0.049,1.609-0.049,2.365c-0.017,0.525,0.126,0.998,0.431,1.416
		c0.304,0.419,0.702,0.628,1.195,0.628c0.147,0,0.291-0.04,0.431-0.123c0.139-0.082,0.283-0.188,0.431-0.319
		c0.114-0.148,0.226-0.287,0.333-0.42c0.106-0.131,0.218-0.262,0.333-0.394c0.065-0.032,0.16-0.09,0.283-0.173
		c0.123-0.082,0.242-0.18,0.357-0.295c0.229,0.492,0.422,0.924,0.579,1.293s0.274,0.693,0.357,0.973
		c-0.378,0.345-0.751,0.702-1.121,1.071c-0.369,0.37-0.76,0.719-1.17,1.047c-0.493,0.378-0.969,0.661-1.428,0.85
		c-0.46,0.189-0.92,0.284-1.379,0.284c-1.068,0-1.889-0.305-2.463-0.912s-0.911-1.527-1.01-2.759c0-0.147-0.021-0.299-0.062-0.455
		s-0.127-0.315-0.259-0.48c-0.083,0.083-0.172,0.169-0.271,0.259c-0.099,0.09-0.214,0.209-0.345,0.357
		c-0.213,0.164-0.48,0.369-0.8,0.615c-0.32,0.246-0.694,0.542-1.121,0.887c-0.575,0.592-1.059,1.076-1.453,1.453
		c-0.394,0.379-0.674,0.649-0.837,0.813c-0.329,0.279-0.71,0.559-1.146,0.838s-0.923,0.566-1.465,0.862
		c-0.345,0.181-0.641,0.324-0.887,0.431c-0.247,0.107-0.427,0.16-0.542,0.16c-0.788,0-1.371-0.193-1.749-0.579
		c-0.377-0.386-0.566-0.98-0.566-1.785c0-0.444,0.094-0.866,0.283-1.269c0.188-0.402,0.472-0.792,0.85-1.17
		c0.033-0.213,0.049-0.386,0.049-0.518c0-0.082-0.021-0.168-0.062-0.258c-0.041-0.091-0.094-0.193-0.16-0.309
		c-0.099-0.23-0.209-0.488-0.333-0.775c-0.123-0.287-0.258-0.596-0.406-0.924c0.065-0.066,0.16-0.193,0.283-0.382
		S64.054,26.732,64.218,26.453z"/>
	<path fill="#FFFFFF" d="M119.957,29.803c-0.493,0.378-1.105,0.813-1.836,1.306s-1.588,1.034-2.573,1.626
		c-0.887,0.509-1.671,0.947-2.353,1.317c-0.682,0.369-1.252,0.645-1.712,0.825c-0.673,0.312-1.388,0.537-2.143,0.677
		s-1.527,0.21-2.315,0.21c-0.246,0-0.521-0.037-0.825-0.111s-0.628-0.16-0.973-0.258c-0.427-0.115-0.788-0.214-1.083-0.297
		c-0.297-0.082-0.543-0.131-0.74-0.146l-0.295-0.296l-0.715-0.099c-0.312-0.016-0.686-0.172-1.12-0.469
		c-0.436-0.295-0.908-0.705-1.417-1.23c-0.493-0.493-0.891-0.961-1.195-1.404c-0.304-0.443-0.521-0.846-0.652-1.207l-0.665-2.118
		c-0.23-0.722-0.403-1.306-0.518-1.749c-0.115-0.443-0.164-0.73-0.147-0.862l0.271-1.108c-0.132-0.378-0.234-0.69-0.308-0.936
		c-0.074-0.247-0.11-0.435-0.11-0.567c0-0.131,0.04-0.533,0.123-1.207c0.082-0.673,0.197-1.609,0.345-2.808
		c0.114-0.23,0.238-0.509,0.369-0.837s0.255-0.698,0.37-1.108l-0.074-0.542c0-0.131,0.028-0.284,0.086-0.456
		s0.136-0.365,0.234-0.579c0.378-0.804,0.755-1.617,1.133-2.438c0.377-0.821,0.755-1.617,1.133-2.389
		c0.329-0.591,0.752-1.199,1.269-1.823c0.518-0.624,1.112-1.272,1.786-1.945c0.147-0.164,0.328-0.378,0.541-0.641
		c0.213-0.262,0.469-0.55,0.764-0.862c0.279-0.164,0.62-0.415,1.022-0.751s0.883-0.768,1.44-1.293
		c0.164-0.065,0.361-0.156,0.592-0.271c0.229-0.115,0.508-0.254,0.837-0.419c0.083-0.049,0.185-0.131,0.308-0.246
		s0.268-0.238,0.432-0.37c0.181-0.164,0.838-0.41,1.971-0.739s1.871-0.493,2.217-0.493c0.755,0,1.395,0.053,1.92,0.16
		c0.526,0.107,0.945,0.275,1.257,0.504l0.788,0.148c0.656,0.148,1.141,0.649,1.453,1.502c0.313,0.854,0.469,2.085,0.469,3.695
		c0,0.755-0.01,1.359-0.025,1.81c-0.016,0.452-0.041,0.76-0.073,0.924c-0.099,0.493-0.21,1.112-0.332,1.86
		c-0.123,0.748-0.282,1.613-0.479,2.599c-0.017,0.262-0.127,0.693-0.332,1.293c-0.204,0.6-0.471,1.342-0.797,2.229
		c-0.346,0.969-0.641,1.704-0.887,2.204c-0.245,0.501-0.449,0.776-0.613,0.825c-0.656,0.165-1.361,0.345-2.114,0.542
		c-0.36,0-0.616-0.029-0.763-0.086c-0.148-0.058-0.223-0.152-0.223-0.283c0-0.115,0.029-0.296,0.087-0.542
		c0.058-0.247,0.086-0.419,0.086-0.518c-0.05-0.624-0.099-1.256-0.147-1.896c0-0.229,0.064-0.681,0.197-1.354
		c0.131-0.673,0.328-1.535,0.591-2.586c0.277-1.149,0.523-2.056,0.735-2.722c0.213-0.665,0.385-1.08,0.515-1.244
		c0.474-0.443,0.821-0.866,1.042-1.269s0.33-0.768,0.33-1.096c0-0.46-0.109-0.862-0.332-1.208c-0.222-0.345-0.555-0.607-0.997-0.788
		c-0.428-0.099-0.858-0.193-1.293-0.283c-0.436-0.09-0.866-0.201-1.294-0.333c-0.344,0.132-0.652,0.23-0.924,0.296
		c-0.271,0.065-0.504,0.123-0.701,0.172c-1.1,0.181-2.155,0.689-3.166,1.527c-1.01,0.837-1.974,1.995-2.893,3.472
		c-0.756,1.281-1.363,2.566-1.823,3.855s-0.772,2.582-0.937,3.879c-0.064,0.395-0.146,0.883-0.246,1.466
		c-0.098,0.583-0.238,1.269-0.418,2.057c0.147,0.492,0.279,0.944,0.395,1.354l-0.247,2.241c0,0.083,0.073,0.25,0.222,0.505
		c0.148,0.255,0.378,0.628,0.689,1.121c0.181,0.279,0.346,0.607,0.492,0.984c0.148,0.379,0.263,0.805,0.346,1.281
		c0.033,0.115,0.094,0.238,0.185,0.369c0.09,0.133,0.192,0.238,0.308,0.32c0.246,0.213,0.484,0.402,0.715,0.566
		c0.705,0.756,1.457,1.326,2.254,1.712c0.796,0.386,1.646,0.579,2.549,0.579c0.082,0,0.39-0.041,0.924-0.123
		c0.533-0.082,1.268-0.213,2.204-0.395c0.164-0.114,0.382-0.23,0.652-0.345s0.595-0.237,0.974-0.37
		c0.328-0.328,0.656-0.563,0.984-0.701c0.329-0.14,0.632-0.209,0.912-0.209c0.082-0.115,0.184-0.255,0.308-0.419
		c0.123-0.164,0.282-0.345,0.479-0.542c0.493-0.197,0.945-0.456,1.355-0.775c0.41-0.32,0.805-0.693,1.182-1.121
		C119.628,28.966,119.957,29.721,119.957,29.803z"/>
	<path fill="#FFFFFF" d="M118.946,27.537c0.361-0.313,0.641-0.559,0.837-0.739c0.197-0.181,0.354-0.337,0.469-0.468
		c0.263-0.246,0.477-0.484,0.641-0.714s0.254-0.435,0.271-0.616c0.146-0.558,0.319-1.256,0.516-2.094
		c0.197-0.837,0.452-1.806,0.764-2.906c0.148-0.328,0.309-0.743,0.48-1.244c0.173-0.501,0.357-1.063,0.555-1.688
		c0.197-0.821,0.443-1.567,0.738-2.241c0.296-0.673,0.625-1.281,0.986-1.822c0.114-0.148,0.229-0.333,0.344-0.555
		c0.115-0.222,0.23-0.48,0.346-0.776c0.114-0.262,0.274-0.57,0.48-0.923c0.205-0.353,0.439-0.768,0.701-1.244
		c0.674-0.985,1.265-1.831,1.773-2.537c0.509-0.706,0.928-1.272,1.256-1.7c0.592-0.706,1.187-1.367,1.787-1.982
		c0.599-0.616,1.202-1.187,1.81-1.712c0.558-0.477,1.043-0.825,1.453-1.047s0.739-0.333,0.985-0.333
		c0.23,0.198,0.394,0.378,0.492,0.542c0.115,0,0.23-0.016,0.346-0.049c0.426,0,0.738,0.172,0.936,0.517
		c0.197,0.345,0.295,0.854,0.295,1.527c0,0.148-0.024,0.341-0.073,0.579c-0.05,0.238-0.115,0.53-0.197,0.875
		c-0.115,0.115-0.197,0.263-0.247,0.443c-0.049,0.181-0.09,0.362-0.123,0.542c-0.016,0.23-0.04,0.428-0.073,0.591
		c-0.033,0.164-0.074,0.312-0.123,0.443c-0.214,0.394-0.444,0.875-0.69,1.441s-0.508,1.228-0.787,1.982
		c-0.164,0.28-0.37,0.649-0.616,1.108c-0.247,0.46-0.542,0.97-0.887,1.527c-0.164,0.312-0.374,0.702-0.628,1.17
		c-0.255,0.468-0.578,1.006-0.973,1.613c-0.099,0.23-0.268,0.48-0.506,0.751s-0.521,0.587-0.85,0.948
		c-0.098,0.263-0.373,0.714-0.824,1.354c-0.453,0.64-1.08,1.47-1.885,2.488c-0.395,0.509-0.902,1.142-1.527,1.896
		c-0.624,0.755-1.346,1.65-2.167,2.685c-0.312,1.232-0.546,2.328-0.702,3.289s-0.234,1.794-0.234,2.5
		c0,0.279,0.021,0.488,0.063,0.628c0.04,0.14,0.119,0.209,0.233,0.209c0.082-0.114,0.2-0.247,0.357-0.394
		c0.156-0.148,0.315-0.32,0.48-0.518c0.312-0.279,0.677-0.797,1.096-1.552s0.899-1.732,1.44-2.931
		c0.477-1.084,0.903-1.917,1.281-2.5c0.377-0.583,0.689-0.932,0.936-1.046l0.862-0.37c0.164-0.065,0.312-0.123,0.444-0.172
		c0.131-0.049,0.236-0.074,0.319-0.074c0.214,0,0.41,0.131,0.591,0.394s0.328,0.624,0.443,1.083
		c0.213,0.837,0.386,1.482,0.518,1.933c0.131,0.452,0.205,0.719,0.222,0.801c0.214,0.492,0.472,0.854,0.776,1.084
		c0.303,0.23,0.668,0.345,1.096,0.345c0.509-0.082,1.108-0.197,1.798-0.345c0.132,0.328,0.283,0.682,0.456,1.059
		c0.172,0.379,0.348,0.781,0.529,1.207c-0.395,0.263-0.793,0.518-1.194,0.764c-0.403,0.246-0.801,0.492-1.195,0.738
		c-0.263,0.148-0.64,0.26-1.133,0.333c-0.493,0.074-1.067,0.111-1.724,0.111c-1.002,0-1.777-0.472-2.328-1.417
		c-0.551-0.943-0.883-1.407-0.998-1.391h-0.146c-0.264,0.328-0.539,0.664-0.826,1.01c-0.287,0.344-0.57,0.705-0.85,1.083
		c-0.181,0.378-0.435,0.813-0.763,1.306c-0.329,0.492-0.724,1.035-1.183,1.625c-0.542,0.657-1.019,1.149-1.429,1.479
		c-0.411,0.328-0.764,0.492-1.06,0.492c-0.624,0-1.111-0.07-1.465-0.209c-0.354-0.14-0.563-0.35-0.629-0.629
		c-0.196-0.918-0.348-1.719-0.455-2.4s-0.16-1.26-0.16-1.736c0-0.148,0.008-0.279,0.025-0.395c0.016-0.115,0.032-0.222,0.049-0.32
		c0.049-0.213,0.106-0.443,0.172-0.689c0-0.082-0.021-0.144-0.061-0.185c-0.042-0.041-0.111-0.062-0.21-0.062
		c-0.05,0.066-0.114,0.139-0.196,0.221c-0.084,0.084-0.197,0.174-0.346,0.271c-0.065-0.213-0.18-0.509-0.345-0.887
		C119.423,28.539,119.209,28.079,118.946,27.537z M134.957,4.778c-0.182,0-0.543,0.324-1.085,0.973s-1.231,1.605-2.068,2.869
		c-0.477,0.706-0.944,1.408-1.403,2.106c-0.461,0.698-0.912,1.384-1.355,2.057c-0.197,0.197-0.341,0.394-0.432,0.591
		c-0.09,0.197-0.135,0.402-0.135,0.616c-0.328,0.919-0.648,1.782-0.961,2.586c-0.295,0.871-0.538,1.543-0.727,2.02
		c-0.188,0.477-0.299,0.756-0.332,0.838l0.123,0.123c0.328-0.295,0.607-0.607,0.838-0.936c0.328-0.377,0.727-0.865,1.193-1.465
		c0.469-0.6,0.998-1.301,1.59-2.106c0.591-0.755,1.197-1.712,1.822-2.869c0.623-1.158,1.297-2.492,2.02-4.002
		c0.41-0.821,0.719-1.478,0.924-1.971s0.308-0.837,0.308-1.035c0-0.114-0.021-0.209-0.062-0.283S135.088,4.778,134.957,4.778z"/>
	<path fill="#FFFFFF" d="M137.813,26.453l2.242-1.478c0.082-0.082,0.181-0.193,0.295-0.333c0.115-0.139,0.246-0.34,0.395-0.603
		c0.115-0.213,0.268-0.394,0.455-0.542c0.189-0.148,0.407-0.279,0.654-0.394c0.131-0.164,0.319-0.37,0.566-0.616
		c0.246-0.246,0.558-0.533,0.936-0.862c0.18-0.099,0.41-0.243,0.689-0.432c0.279-0.188,0.582-0.439,0.911-0.751
		c1.493-1.412,2.804-2.471,3.929-3.177s2.073-1.059,2.846-1.059c0.426,0,0.742,0.09,0.947,0.271
		c0.205,0.181,0.309,0.435,0.309,0.763c0,0.345-0.063,0.649-0.186,0.912c-0.123,0.263-0.315,0.484-0.578,0.665
		c-0.41,0.295-0.854,0.625-1.33,0.985c-0.264,0.344-0.583,0.71-0.961,1.096c-0.377,0.386-0.822,0.768-1.33,1.146
		c-0.164,0.213-0.305,0.402-0.418,0.566c-0.084,0.083-0.238,0.23-0.469,0.443c-0.23,0.214-0.533,0.46-0.911,0.739
		c-0.165,0.361-0.521,0.829-1.071,1.403c-0.551,0.575-1.285,1.264-2.205,2.069c-0.115,0.115-0.32,0.379-0.615,0.789
		c-0.296,0.41-0.682,0.951-1.158,1.625l0.173,0.222c0.36-0.114,0.739-0.312,1.133-0.591s0.829-0.648,1.306-1.108
		c0.558-0.509,1.014-0.924,1.367-1.244c0.353-0.319,0.604-0.529,0.751-0.628c0.114-0.065,0.229-0.131,0.345-0.197
		c0.114-0.064,0.246-0.148,0.395-0.246c0.754-0.903,1.461-1.572,2.118-2.007c0.657-0.435,1.265-0.653,1.822-0.653
		c0.345,0,0.607,0.135,0.788,0.406c0.182,0.271,0.288,0.677,0.32,1.219c-0.032,0.822-0.049,1.609-0.049,2.365
		c-0.017,0.525,0.127,0.998,0.431,1.416c0.304,0.419,0.702,0.628,1.194,0.628c0.148,0,0.292-0.04,0.432-0.123
		c0.139-0.082,0.283-0.188,0.431-0.319c0.114-0.148,0.226-0.287,0.333-0.42c0.106-0.131,0.217-0.262,0.332-0.394
		c0.065-0.032,0.16-0.09,0.283-0.173c0.123-0.082,0.242-0.18,0.357-0.295c0.23,0.492,0.423,0.924,0.578,1.293
		c0.156,0.369,0.275,0.693,0.357,0.973c-0.377,0.345-0.751,0.702-1.12,1.071c-0.37,0.37-0.76,0.719-1.17,1.047
		c-0.493,0.378-0.97,0.661-1.429,0.85c-0.46,0.189-0.92,0.284-1.379,0.284c-1.068,0-1.889-0.305-2.463-0.912
		c-0.576-0.607-0.912-1.527-1.011-2.759c0-0.147-0.021-0.299-0.062-0.455s-0.127-0.315-0.259-0.48
		c-0.083,0.083-0.173,0.169-0.271,0.259c-0.099,0.09-0.214,0.209-0.346,0.357c-0.213,0.164-0.479,0.369-0.801,0.615
		c-0.319,0.246-0.693,0.542-1.119,0.887c-0.576,0.592-1.061,1.076-1.454,1.453c-0.394,0.379-0.674,0.649-0.837,0.813
		c-0.329,0.279-0.711,0.559-1.146,0.838c-0.434,0.279-0.923,0.566-1.465,0.862c-0.345,0.181-0.641,0.324-0.887,0.431
		c-0.246,0.107-0.427,0.16-0.542,0.16c-0.788,0-1.37-0.193-1.749-0.579c-0.377-0.386-0.566-0.98-0.566-1.785
		c0-0.444,0.096-0.866,0.283-1.269c0.189-0.402,0.473-0.792,0.85-1.17c0.033-0.213,0.05-0.386,0.05-0.518
		c0-0.082-0.021-0.168-0.062-0.258c-0.041-0.091-0.094-0.193-0.16-0.309c-0.099-0.23-0.209-0.488-0.332-0.775
		s-0.259-0.596-0.406-0.924c0.064-0.066,0.16-0.193,0.283-0.382S137.65,26.732,137.813,26.453z"/>
	<path fill="#FFFFFF" d="M155.967,27.537c0.065-0.115,0.151-0.242,0.258-0.382c0.107-0.14,0.234-0.308,0.382-0.505
		c0.165-0.131,0.378-0.32,0.641-0.566c0.263-0.247,0.559-0.533,0.887-0.862c0.296-0.328,0.657-0.734,1.084-1.219
		c0.427-0.484,0.944-1.071,1.552-1.761c0.262-0.279,0.591-0.637,0.984-1.072c0.395-0.435,0.863-0.956,1.404-1.564
		c0.46-0.542,0.953-0.944,1.479-1.207c0.525-0.262,1.083-0.394,1.674-0.394c0.592,0,1.027,0.185,1.306,0.554
		c0.278,0.369,0.419,0.908,0.419,1.613c0,0.378-0.141,1.1-0.419,2.167c-0.278,1.068-0.714,2.479-1.306,4.236
		c-0.147,0.329-0.287,0.641-0.418,0.936c-0.099,0.215-0.164,0.403-0.197,0.567c-0.033,0.163-0.049,0.286-0.049,0.369
		c0,0.099,0.057,0.222,0.172,0.37c0.082-0.051,0.16-0.115,0.234-0.197s0.16-0.182,0.258-0.296c0.132-0.246,0.333-0.505,0.604-0.776
		c0.271-0.271,0.596-0.57,0.973-0.898c0.148-0.279,0.341-0.555,0.58-0.825c0.237-0.271,0.504-0.521,0.8-0.751
		c0.065-0.065,0.152-0.172,0.259-0.32c0.106-0.148,0.234-0.304,0.382-0.468c0.213-0.214,0.468-0.435,0.764-0.666
		c0.296-0.229,0.64-0.468,1.034-0.714c0.443-0.23,0.842-0.41,1.194-0.542c0.353-0.131,0.661-0.197,0.924-0.197
		c0.509,0,0.961,0.123,1.354,0.369c0.395,0.247,0.73,0.632,1.01,1.158c0.329,1.019,0.641,1.962,0.936,2.833
		c0.182,0.509,0.383,0.887,0.604,1.133c0.223,0.246,0.474,0.369,0.751,0.369c0.215,0,0.407-0.041,0.58-0.123
		c0.172-0.082,0.332-0.205,0.48-0.369l0.984,2.266c-0.279,0.23-0.565,0.469-0.861,0.715s-0.583,0.484-0.862,0.714
		c-0.378,0.345-0.731,0.587-1.06,0.727s-0.656,0.21-0.985,0.21c-0.377,0-0.738-0.082-1.083-0.247
		c-0.345-0.163-0.641-0.409-0.887-0.739c-0.131-0.131-0.296-0.373-0.493-0.727c-0.196-0.353-0.427-0.791-0.689-1.317
		c-0.213-0.213-0.456-0.496-0.727-0.849c-0.271-0.354-0.587-0.768-0.948-1.244l-0.222-0.074c-0.312,0.098-0.62,0.246-0.923,0.443
		c-0.304,0.197-0.628,0.451-0.972,0.764c-0.738,0.656-1.271,1.067-1.599,1.23c-0.329,0.165-0.55,0.354-0.665,0.567
		c-0.229,0.394-0.623,0.903-1.181,1.526c-0.558,0.625-1.255,1.363-2.091,2.217c-0.213,0.214-0.426,0.423-0.639,0.629
		c-0.215,0.205-0.428,0.406-0.641,0.604c-0.213,0.18-0.455,0.308-0.726,0.381c-0.271,0.074-0.569,0.111-0.897,0.111
		c-0.657,0-1.014-0.227-1.072-0.678c-0.057-0.451-0.11-0.907-0.16-1.367c0.246-0.689,0.525-1.551,0.837-2.586
		c0.313-1.034,0.671-2.241,1.078-3.62c0-0.083,0.028-0.192,0.085-0.333c0.057-0.139,0.125-0.324,0.207-0.554
		c0.081-0.214,0.139-0.398,0.172-0.554c0.031-0.156,0.047-0.292,0.047-0.407s-0.04-0.205-0.123-0.271
		c-0.082-0.065-0.213-0.099-0.394-0.099c-0.164,0-0.382,0.099-0.652,0.296c-0.271,0.197-0.596,0.509-0.974,0.936
		c-0.459,0.492-0.828,0.879-1.107,1.157c-0.279,0.28-0.469,0.444-0.566,0.493c-0.164,0.115-0.357,0.279-0.58,0.492
		c-0.221,0.213-0.471,0.452-0.75,0.715c-0.033,0.064-0.082,0.164-0.148,0.295c-0.065,0.133-0.172,0.279-0.32,0.443
		c-0.065-0.246-0.18-0.55-0.345-0.911C156.443,28.531,156.229,28.079,155.967,27.537z"/>
	<path fill="#FFFFFF" d="M179.513,27.537c0.115-0.131,0.255-0.316,0.419-0.555c0.165-0.237,0.369-0.514,0.615-0.824
		c0.214-0.181,0.46-0.423,0.739-0.727c0.279-0.304,0.591-0.686,0.937-1.145c0.131-0.279,0.291-0.587,0.48-0.924
		c0.188-0.336,0.405-0.734,0.652-1.194c0.099-0.443,0.328-0.948,0.689-1.515c0.361-0.567,0.862-1.203,1.502-1.909
		c0.904-1.001,1.848-2.068,2.832-3.202c0.51-0.755,1.064-1.313,1.664-1.675c0.599-0.361,1.243-0.542,1.933-0.542
		c0.46,0,0.81,0.206,1.047,0.616c0.238,0.411,0.357,1.019,0.357,1.823c0,0.295-0.201,0.755-0.604,1.379s-1.014,1.42-1.835,2.389
		c-0.51,0.607-1.043,1.211-1.602,1.81c-0.558,0.6-1.107,1.211-1.649,1.835c-0.247,0.23-0.505,0.48-0.776,0.751
		c-0.271,0.271-0.563,0.57-0.874,0.899c-0.099,0.345-0.206,0.731-0.32,1.157c0,0.64,0.041,1.195,0.123,1.664
		c0.083,0.467,0.206,0.865,0.369,1.193c0.083,0.115,0.259,0.374,0.53,0.776c0.271,0.403,0.636,0.923,1.096,1.563
		c0.115,0.164,0.255,0.33,0.418,0.493c0.165,0.164,0.354,0.329,0.567,0.493c0.246-0.1,0.723-0.539,1.429-1.318
		c0.705-0.779,1.658-1.884,2.857-3.313l0.936,2.266c-0.114,0.132-0.332,0.398-0.653,0.801c-0.32,0.402-0.71,0.932-1.17,1.588
		c-0.525,0.69-1.059,1.43-1.601,2.217c0,0.165,0.078,0.354,0.234,0.566c0.156,0.214,0.349,0.452,0.578,0.715
		c0.428,0.492,0.793,1.133,1.096,1.922c0.305,0.787,0.538,1.748,0.703,2.881c-0.017,0.082-0.037,0.213-0.062,0.395
		c-0.025,0.18-0.045,0.385-0.062,0.615c-0.197,1.889-1.359,3.777-3.485,5.665C187.497,49.055,185.49,50,183.602,50
		c-0.87,0-1.563-0.111-2.081-0.333s-0.883-0.554-1.097-0.997c-0.081-0.214-0.147-0.633-0.196-1.256
		c-0.05-0.625-0.074-1.453-0.074-2.488c0-0.098,0.045-0.291,0.136-0.578c0.09-0.288,0.241-0.678,0.456-1.17
		c0.114-0.33,0.274-0.67,0.479-1.023c0.205-0.353,0.423-0.734,0.652-1.145c0.23-0.345,0.464-0.682,0.703-1.01
		c0.237-0.329,0.463-0.656,0.677-0.985c0.525-0.575,0.993-1.084,1.404-1.526c0.312-0.313,0.554-0.608,0.726-0.887
		c0.173-0.28,0.26-0.526,0.26-0.74c-0.559-0.771-1.117-1.51-1.676-2.216c-0.591-0.739-1.071-1.478-1.44-2.218
		c-0.369-0.738-0.612-1.493-0.727-2.266c-0.017-0.098-0.082-0.254-0.197-0.467c-0.378,0.36-0.747,0.73-1.108,1.107
		c-0.065-0.246-0.181-0.55-0.345-0.911C179.989,28.531,179.775,28.079,179.513,27.537z M187.592,37.882
		c-0.099,0-0.324,0.229-0.678,0.689s-0.833,1.142-1.44,2.044c-0.346,0.543-0.689,1.092-1.034,1.65
		c-0.346,0.559-0.706,1.108-1.084,1.65c-0.132,0.182-0.32,0.607-0.566,1.281c-0.247,0.673-0.37,1.1-0.37,1.28
		c0,0.312,0.086,0.542,0.259,0.689s0.439,0.222,0.801,0.222c1.264,0,2.562-0.686,3.892-2.057s1.995-2.688,1.995-3.953
		c0-0.262-0.049-0.57-0.148-0.924c-0.098-0.353-0.229-0.742-0.394-1.17c-0.213-0.477-0.419-0.828-0.615-1.059
		C188.01,37.996,187.806,37.882,187.592,37.882z"/>
</g>
</svg>
